<?xml version="1.0" standalone="no"?><!DOCTYPE svg PUBLIC "-//W3C//DTD SVG 1.1//EN" "http://www.w3.org/Graphics/SVG/1.1/DTD/svg11.dtd"><svg t="1695261915356" class="icon" viewBox="0 0 1243 1024" version="1.1" xmlns="http://www.w3.org/2000/svg" p-id="20200" xmlns:xlink="http://www.w3.org/1999/xlink" width="242.7734375" height="200"><path d="M36.430994 880.566857A36.498286 36.498286 0 0 1 0.005851 844.068571v-69.339428A347.721143 347.721143 0 0 1 188.348709 463.725714l9.728-5.12-7.314286-8.045714a214.089143 214.089143 0 0 1-56.027429-155.209143A214.162286 214.162286 0 0 1 204.805851 146.066286c26.697143-24.356571 59.245714-41.691429 94.354286-50.176h0.146286a36.571429 36.571429 0 0 1 17.115428 70.948571c-69.12 16.603429-108.982857 67.291429-108.982857 138.971429 0 76.8 33.938286 107.812571 84.845715 130.633143 4.461714 1.901714 8.265143 4.534857 11.556571 7.899428l1.243429 1.170286a35.401143 35.401143 0 0 1 5.046857 8.045714l0.731428 1.462857c0.585143 1.170286 1.170286 2.340571 1.609143 3.657143 0.292571 0.877714 0.731429 1.682286 1.097143 2.267429v0.585143c-0.146286 1.097143-0.146286 2.194286 0 3.364571a34.523429 34.523429 0 0 1 0.292571 8.777143c-0.073143 1.024-0.365714 2.048-0.658285 3.072l-0.219429 0.731428a45.348571 45.348571 0 0 0-0.731428 3.949715c-0.146286 1.462857-0.292571 2.633143-0.658286 3.437714a36.059429 36.059429 0 0 1-28.233143 20.772571l-0.512 0.073143-0.438857 0.146286a275.748571 275.748571 0 0 0-209.554286 268.873143v69.339428a36.498286 36.498286 0 0 1-36.498286 36.498286z m1166.555429 0a36.498286 36.498286 0 0 1-36.425143-36.498286v-69.339428a275.748571 275.748571 0 0 0-209.554286-268.873143l-0.512-0.146286h-0.512a36.132571 36.132571 0 0 1-28.306285-21.065143 14.409143 14.409143 0 0 1-0.731429-3.510857c-0.146286-1.024-0.219429-2.048-0.438857-2.998857V477.622857l-0.219429-0.438857a26.843429 26.843429 0 0 1-0.950857-4.022857 35.693714 35.693714 0 0 1 0.365714-7.826286 22.162286 22.162286 0 0 0 0.073143-3.803428v-0.585143a13.019429 13.019429 0 0 0 1.097143-2.56c0.292571-0.804571 0.731429-1.536 1.097143-2.340572a51.565714 51.565714 0 0 0 1.170286-2.413714 35.474286 35.474286 0 0 1 5.412571-8.557714l0.731429-0.585143a35.547429 35.547429 0 0 1 11.702857-8.192 142.262857 142.262857 0 0 0 75.337143-79.725714c13.604571-35.766857 12.434286-74.605714-3.218286-109.494858a142.628571 142.628571 0 0 0-93.037714-79.652571 36.498286 36.498286 0 0 1 12.068571-71.533714l7.168 1.243428a215.771429 215.771429 0 0 1 103.277714 353.28l-7.387428 8.192 9.728 5.046857a347.721143 347.721143 0 0 1 188.489143 310.930286v69.485714a36.498286 36.498286 0 0 1-36.425143 36.425143zM619.74528 72.923429a188.123429 188.123429 0 0 0-187.830857 187.830857 188.416 188.416 0 0 0 187.757714 188.050285 188.416 188.416 0 0 0 188.050286-187.977142 188.123429 188.123429 0 0 0-187.977143-187.977143z m0 448.658285a368.420571 368.420571 0 0 0-367.469714 367.469715v53.248h734.866285v-53.248a368.347429 368.347429 0 0 0-358.985142-367.323429v-0.073143l-8.411429-0.073143zM215.850423 1015.222857a36.425143 36.425143 0 0 1-36.425143-36.498286v-89.673142a438.637714 438.637714 0 0 1 277.577143-408.722286l13.604571-5.485714-11.556571-8.996572a258.779429 258.779429 0 0 1-100.205714-205.092571A261.558857 261.558857 0 0 1 619.74528 0a261.558857 261.558857 0 0 1 260.900571 260.754286c-0.073143 80.749714-36.571429 155.428571-100.205714 205.092571l-19.382857 15.067429h22.966857a438.418286 438.418286 0 0 1 276.041143 408.137143v89.746285a36.425143 36.425143 0 0 1-36.352 36.425143H215.77728z" fill="#8b271a" p-id="20201"></path></svg>