<?xml version="1.0" standalone="no"?><!DOCTYPE svg PUBLIC "-//W3C//DTD SVG 1.1//EN" "http://www.w3.org/Graphics/SVG/1.1/DTD/svg11.dtd"><svg t="1695261699585" class="icon" viewBox="0 0 1024 1024" version="1.1" xmlns="http://www.w3.org/2000/svg" p-id="17172" xmlns:xlink="http://www.w3.org/1999/xlink" width="200" height="200"><path d="M515.8 187.3c-159.7 0-289.7 129.9-289.7 289.7 0 111.2 63.2 211.8 162.7 260.4v125.3c0 35.1 21.1 65.6 51.5 79v27c0 30.4 24.6 55 55 55h42.1c30.4 0 55-24.6 55-55v-27c30.4-13.5 51.5-43.9 51.5-79V737.4c98.9-48.6 162.7-149.2 162.7-260.4-1.2-159.7-131.1-289.7-290.8-289.7zM595.5 859c-0.6 23.1-19.4 42-42.6 42h-74.3c-23.1 0-42-18.8-42-42v-45.2h158.8V859z m11.4-168.8l-11.4 4.9v57.4h-60.8V640.8c3.2-2.1 5.5-5.5 7.6-8.7l55.3-101.9c4.9-8.1 4.3-18.4-0.6-26.5-5.5-8.7-15.2-14.1-26-14.1H460c-10.8 0-20.6 5.5-26 14.1-4.9 8.1-5.5 17.9-0.6 26.5l55.9 102.5c2.1 3.2 4.3 6.5 7.6 8.7v111.2h-60.8v-57.4l-11.4-4.9C340.2 654 285.9 570.4 285.9 478.8c0-126.9 103.6-230.5 230.5-230.5s230.5 103.6 230.5 230.5c-0.6 91.6-55.4 174.5-140 211.4zM21.8 419.1h108.6V461H21.8v-41.9M240.2 219.2l-76.9-76.9 29.7-29.6 76.8 76.8-29.6 29.7M755.6 189.5l76.9-76.8 29.6 29.6-76.8 76.9-29.7-29.7M893.9 419.1h108.6V461H893.9v-41.9M491.2 1.5h41.9v108.6h-41.9V1.5" p-id="17173" fill="#8b271a"></path></svg>