<?xml version="1.0" standalone="no"?><!DOCTYPE svg PUBLIC "-//W3C//DTD SVG 1.1//EN" "http://www.w3.org/Graphics/SVG/1.1/DTD/svg11.dtd"><svg t="1695262508086" class="icon" viewBox="0 0 1024 1024" version="1.1" xmlns="http://www.w3.org/2000/svg" p-id="34297" xmlns:xlink="http://www.w3.org/1999/xlink" width="200" height="200"><path d="M33.110339 403.17663l82.766815 0 0 221.584575 33.254847 0L149.132001 403.17663l83.128085 0 0-29.660216L33.110339 373.516414 33.110339 403.17663zM300.269047 509.60659l138.980331 0 0-29.497645-138.980331 0L300.269047 403.17663l148.409462 0 0-29.660216L267.032264 373.516414l0 251.244792 187.480746 0 0-29.67828-154.243963 0L300.269047 509.60659zM569.324419 373.516414l-96.476988 251.244792 35.314082 0 27.600981-76.101395 105.021009 0 29.31701 76.101395 37.861031 0-102.799203-251.244792L569.324419 373.516414zM545.336132 521.58267l27.600981-73.68089c5.78031-15.877789 10.296177-31.882023 13.529538-47.994637 3.883646 13.601792 9.826527 30.960786 17.810581 52.095045l26.210094 69.580483L545.336132 521.58267zM928.516502 373.516414l-60.133289 174.782127c-6.051262 17.738327-10.531002 31.159484-13.366967 40.281536-2.510822-8.255005-6.502849-20.646545-12.012207-37.192683l-59.446877-177.889044-50.053873 0 0 251.244792 32.044594 0 0-213.871474 72.651273 213.871474 29.985359 0 72.994479-210.276844 0 210.276844 32.044594 0L973.223588 373.516414 928.516502 373.516414z" fill="#8b271a" p-id="34298"></path></svg>